<svg width="500" height="500" viewBox="0 0 500 500" fill="none" xmlns="http://www.w3.org/2000/svg">
<g clip-path="url(#clip0_2873_4197)">
<path d="M550 -50H-50V550H550V-50Z" fill="white"/>
<path d="M550 -50H-50V550H550V-50Z" fill="black"/>
<mask id="mask0_2873_4197" style="mask-type:luminance" maskUnits="userSpaceOnUse" x="402" y="60" width="89" height="379">
<path d="M402.5 60.396H490.339V438.432H402.5V60.396Z" fill="white"/>
</mask>
<g mask="url(#mask0_2873_4197)">
<path d="M523.618 59.4688H399.582V441.068H523.618V59.4688Z" fill="#D9272E"/>
</g>
<mask id="mask1_2873_4197" style="mask-type:luminance" maskUnits="userSpaceOnUse" x="9" y="60" width="394" height="380">
<path d="M9.94922 60.396H402.439V439.542H9.94922V60.396Z" fill="white"/>
</mask>
<g mask="url(#mask1_2873_4197)">
<path d="M1596.36 128.271V439.48H1563.75L1329.92 189.625V439.48H1305.6V128.271H1347.61L1572.58 368.172V128.271H1596.36ZM2894.26 128.271V368.172L2669.28 128.271H2627.27V439.48H2651.59V190.177L2885.42 440.032H2918.03V128.271H2894.26ZM1186.75 439.48H1242.58V128.271H1186.75V439.48ZM2249.74 128.271H1936.86V153.698L2065.11 151.485V440.032H2120.93V151.485L2249.17 153.698V128.271H2249.74ZM2981.05 47.0107C2958.39 47.0107 2940.15 65.2555 2940.15 87.3649C2940.15 109.474 2958.39 127.719 2981.05 127.719C3003.71 127.719 3021.4 109.474 3021.4 87.3649C3021.4 65.2555 3003.71 47.0107 2981.05 47.0107ZM2981.05 119.427C2963.91 119.427 2950.1 105.604 2950.1 87.3649C2950.1 70.2295 2963.91 55.8597 2981.05 55.8597C2997.63 55.8597 3011.45 69.6774 3011.45 87.3649C3011.45 105.604 2997.63 119.427 2981.05 119.427ZM2986.57 91.2347C2993.21 90.1305 2998.74 86.2607 2998.74 77.9691C2998.74 68.568 2992.65 64.7035 2981.05 64.7035H2963.36V111.136H2971.1V91.2347H2977.73L2989.33 111.136H2999.28L2986.57 91.2347ZM2971.1 84.5993V71.3337H2979.94C2984.37 71.3337 2990.44 72.4378 2990.44 77.9691C2990.44 84.5993 2984.91 84.5993 2979.39 84.5993H2971.1ZM664.934 439.48V414.605L481.965 417.37V283.047H619.605V264.25H481.965V150.381L658.298 153.698V127.719L426.689 128.271V440.032H664.934V439.48ZM710.814 127.719V440.032H735.689L735.137 194.052L883.829 440.032H924.184L1063.48 174.703V439.48H1120.97V127.167H1063.48L921.97 395.261L762.777 127.167C762.777 127.719 710.814 127.719 710.814 127.719ZM2407.82 122.74C2296.71 122.74 2223.76 194.599 2223.76 284.151C2223.76 373.698 2281.24 446.115 2407.82 446.115C2534.4 446.115 2591.89 373.698 2591.89 284.151C2591.89 194.599 2518.37 122.74 2407.82 122.74ZM2407.82 426.766C2316.62 426.766 2274.61 363.198 2274.61 284.703C2274.61 206.209 2327.11 142.641 2407.82 142.641C2487.97 142.641 2541.04 206.209 2541.04 284.703C2541.04 363.198 2499.03 426.766 2407.82 426.766ZM402.366 439.48L226.585 279.729C233.22 279.177 240.402 278.625 247.59 278.068C287.392 272.542 368.095 250.985 373.621 168.068C375.283 60.2816 202.262 60.2816 165.23 60.2816H8.79297V440.032H74.0221V281.386H156.934L333.824 439.48H402.366ZM74.0221 78.5212H132.064C171.861 78.5212 320.559 76.8597 320.559 166.964C320.559 248.219 217.741 263.146 171.309 263.146H74.0221V78.5212ZM1902.04 129.375C1878.81 124.953 1853.4 122.188 1826.31 122.188C1705.25 122.188 1633.94 195.157 1633.94 284.151C1633.94 373.698 1691.43 446.115 1818.01 446.115C1876.61 446.115 1918.62 431.188 1950.68 405.209V290.229H1871.07L1896.51 312.896V406.313C1875.5 420.136 1850.63 427.318 1818.57 427.318C1727.36 427.318 1685.36 363.75 1685.36 285.256C1685.36 207.318 1739.53 142.641 1826.86 142.641C1869.98 142.641 1883.8 148.724 1902.58 153.698L1902.04 129.375Z" fill="white"/>
</g>
</g>
<defs>
<clipPath id="clip0_2873_4197">
<rect width="500" height="500" fill="white"/>
</clipPath>
</defs>
</svg>
