<svg width="123" height="24" viewBox="0 0 123 24" fill="none" xmlns="http://www.w3.org/2000/svg">
<path d="M18.5136 0L22.3447 14.578L25.6967 0H31.9214L25.8572 22.6769H19.7907L15.9618 8.58461L12.1307 22.6769H6.06649L0 0H6.2247L9.57664 14.578L13.4191 0H18.5136Z" fill="#0F172B"/>
<path d="M45.4104 22.6769H27.6947V0H45.4104V4.53177H33.4312V8.90541H42.8473V13.4417H33.4402V18.1384H45.4195L45.4104 22.6769Z" fill="#0F172B"/>
<path d="M68.6299 5.83528C69.0232 3.86684 68.7602 2.40219 67.8411 1.44131C66.9219 0.480438 65.2757 0 62.9025 0H47.3317L42.7863 22.6905H59.4556C61.8243 22.6905 63.6626 22.1935 64.9706 21.1995C66.2785 20.2055 67.1464 18.6497 67.5744 16.5322C67.7461 15.7664 67.7806 14.9763 67.6761 14.1985C67.3491 12.3385 66.2544 11.1713 64.392 10.6969C65.404 10.3535 66.3171 9.76883 67.0523 8.99351C67.8766 8.11819 68.4253 7.01989 68.6299 5.83528ZM61.248 15.5494L61.1191 16.2001C60.8569 17.4945 60.0048 18.1429 58.5538 18.1429H51.3052L52.2093 13.6066H59.4556C60.9097 13.6126 61.5071 14.2633 61.248 15.5585V15.5494ZM61.978 6.47461L61.8492 7.12071C61.587 8.4197 60.7349 9.06581 59.2838 9.06581H53.1247L54.0287 4.52725H60.1902C61.6412 4.53027 62.2372 5.1824 61.978 6.48364V6.47461Z" fill="#0F172B"/>
<path d="M51.1356 0H64.2925C66.4427 0 67.936 0.480438 68.7723 1.44131C69.6086 2.40219 69.8512 3.86609 69.5001 5.83302C69.3272 6.99817 68.8351 8.09279 68.0784 8.99577C67.4312 9.75629 66.6025 10.3414 65.669 10.6969C67.3596 11.1713 68.3572 12.3385 68.6615 14.1985C68.7556 14.9763 68.725 15.764 68.5711 16.5322C68.1944 18.6497 67.4116 20.2055 66.2227 21.1995C65.0339 22.1935 63.3658 22.6905 61.2186 22.6905H47.0808L51.1356 0ZM62.8256 15.5585C63.0561 14.2618 62.5137 13.6134 61.1982 13.6134H54.6209L53.8072 18.1519H60.3868C61.7023 18.1519 62.476 17.5036 62.7081 16.2068L62.8256 15.5585ZM63.463 6.48138C63.6935 5.18767 63.1511 4.54006 61.8356 4.53855H56.2438L55.4437 9.07484H61.0355C62.3509 9.07484 63.1247 8.42648 63.3568 7.12975L63.463 6.48138Z" fill="#FDD32A"/>
<path d="M78.1206 18.3124C79.4997 18.2794 80.8681 18.0613 82.1891 17.664L84.3634 5.50776H90.1157L87.0418 22.677H81.9427L81.9043 21.0572C80.8272 21.6954 79.6715 22.1905 78.4665 22.5301C77.5467 22.8086 76.5948 22.9666 75.6344 23H74.1539C72.6652 23 71.5494 22.5573 70.8065 21.6717C70.0636 20.7861 69.8248 19.6084 70.09 18.1384L72.3502 5.48743H78.1071L76.0118 17.1828C75.9791 17.3229 75.9788 17.4685 76.0109 17.6087C76.043 17.7488 76.1067 17.8798 76.1972 17.9916C76.2908 18.1011 76.4084 18.1874 76.541 18.2438C76.6735 18.3003 76.8173 18.3253 76.9611 18.3169L78.1206 18.3124Z" fill="#FDD32A"/>
<path d="M101.779 10.2112C100.246 10.2426 98.7343 10.5726 97.3282 11.1826L95.2691 22.6905H89.51L92.584 5.5213H97.6831L97.6333 7.62905C99.8092 6.00701 101.929 5.19674 103.991 5.19824H105.472L104.568 10.2225L101.779 10.2112Z" fill="#FDD32A"/>
<path d="M122.22 9.88584L111.667 18.3123H120.708L119.926 22.6882H103.652L104.43 18.3123L114.983 9.88358H105.942L106.726 5.50769H123L122.22 9.88584Z" fill="#FDD32A"/>
<path d="M50.9639 1.35999V4.10028L47.6594 5.22532L48.2561 2.28396V2.2817L50.9639 1.35999Z" fill="#FDD32A"/>
<path d="M50.0643 6.43164V9.16742L46.6197 10.3422L47.2164 7.40306V7.4008L50.0643 6.43164Z" fill="#FDD32A"/>
<path d="M49.2325 11.5012V14.2393L45.5754 15.484L46.1721 12.5449L49.2325 11.5012Z" fill="#FDD32A"/>
<path d="M48.2132 16.5774V19.3132L44.5425 20.5647L45.1415 17.6211L48.2132 16.5774Z" fill="#FDD32A"/>
</svg>
