<svg width="20" height="20" viewBox="0 0 20 20" fill="none" xmlns="http://www.w3.org/2000/svg">
<path d="M17.3857 10.3975C17.9908 10.8235 18.3966 11.4683 18.5859 12.3799L18.626 12.5957C18.7036 13.115 18.6829 13.7407 18.5479 14.4814L18.5469 14.4834C18.2263 16.2785 17.5732 17.5257 16.6406 18.3027C15.7073 19.0802 14.359 19.5017 12.5303 19.5H7.68066L8.18555 19.0264L17.3857 10.3975ZM15.252 0.5C17.1072 0.5 18.2444 0.916398 18.8398 1.59766L18.8408 1.59863C19.4379 2.28114 19.6697 3.38455 19.3691 5.05469C19.1758 6.12665 18.7881 6.96534 18.2275 7.59766L18.2266 7.59863C18.0318 7.81947 17.8184 8.02365 17.5898 8.21094H13.9277L15.0078 2.0957L15.2686 0.616211L14.1729 1.64355L4.66992 10.5547L3.93457 11.2441L4.92773 11.4131L8.50781 12.0195L7.35059 18.5742L7.1875 19.5H0.597656L4.01367 0.5H15.252Z" fill="#FDD32A" stroke="#FDD32A"/>
</svg>
