<svg id="Layer_1" data-name="Layer 1" xmlns="http://www.w3.org/2000/svg" viewBox="0 0 512 512"><defs><style>.cls-1{fill:#111827;}.cls-2{fill:#fff;}.cls-3{fill:#fde047;}</style></defs><rect class="cls-1" width="512" height="512"/><polygon class="cls-2" points="462.64 144.69 355.65 350.58 336.67 206.35 340.88 197.62 366.5 144.69 462.64 144.69"/><polygon class="cls-3" points="345.36 370.38 324.65 213.07 315.66 144.72 315.66 144.69 219.52 144.69 214.74 154.56 196.74 191.77 193.89 197.62 192.85 199.82 176.01 234.66 167.21 186.99 159.4 144.69 49.36 88.36 61.75 144.69 71.06 186.99 105.73 344.25 111.12 368.68 111.49 370.38 198.39 370.38 214.71 338.91 215.75 336.94 220.91 327.04 240.06 290.19 257.28 370.38 352.39 423.64 345.36 370.38"/></svg>